HIERARCHY
ROOT Hips
{
	OFFSET 0.00000 0.00000 0.00000
	CHANNELS 6 Xposition Yposition Zposition Zrotation Yrotation Xrotation 
	JOINT LHipJoint
	{
		OFFSET 0 0 0
		CHANNELS 3 Zrotation Yrotation Xrotation
		JOINT LeftUpLeg
		{
			OFFSET 1.44361 -1.63093 0.70831
			CHANNELS 3 Zrotation Yrotation Xrotation
			JOINT LeftLeg
			{
				OFFSET 2.20103 -6.04728 0.00000
				CHANNELS 3 Zrotation Yrotation Xrotation
				JOINT LeftFoot
				{
					OFFSET 2.54154 -6.98283 0.00000
					CHANNELS 3 Zrotation Yrotation Xrotation
					JOINT LeftToeBase
					{
						OFFSET 0.05971 -0.16406 1.77582
						CHANNELS 3 Zrotation Yrotation Xrotation
						End Site
						{
							OFFSET 0.00000 -0.00000 0.90832
						}
					}
				}
			}
		}
	}
	JOINT RHipJoint
	{
		OFFSET 0 0 0
		CHANNELS 3 Zrotation Yrotation Xrotation
		JOINT RightUpLeg
		{
			OFFSET -1.65838 -1.63093 0.70830
			CHANNELS 3 Zrotation Yrotation Xrotation
			JOINT RightLeg
			{
				OFFSET -2.26926 -6.23475 0.00000
				CHANNELS 3 Zrotation Yrotation Xrotation
				JOINT RightFoot
				{
					OFFSET -2.34808 -6.45129 0.00000
					CHANNELS 3 Zrotation Yrotation Xrotation
					JOINT RightToeBase
					{
						OFFSET -0.18633 -0.51195 1.68539
						CHANNELS 3 Zrotation Yrotation Xrotation
						End Site
						{
							OFFSET -0.00000 -0.00000 0.88927
						}
					}
				}
			}
		}
	}
	JOINT LowerBack
	{
		OFFSET 0 0 0
		CHANNELS 3 Zrotation Yrotation Xrotation
		JOINT Spine
		{
			OFFSET -0.10393 2.01691 0.06920
			CHANNELS 3 Zrotation Yrotation Xrotation
			JOINT Spine1
			{
				OFFSET 0.04092 2.01302 -0.05283
				CHANNELS 3 Zrotation Yrotation Xrotation
				JOINT Neck
				{
					OFFSET 0 0 0
					CHANNELS 3 Zrotation Yrotation Xrotation
					JOINT Neck1
					{
						OFFSET -0.02870 1.58978 -0.03113
						CHANNELS 3 Zrotation Yrotation Xrotation
						JOINT Head
						{
							OFFSET 0.11532 1.54326 -0.29195
							CHANNELS 3 Zrotation Yrotation Xrotation
							End Site
							{
								OFFSET 0.04056 1.59999 -0.09535
							}
						}
					}
				}
				JOINT LeftShoulder
				{
					OFFSET 0 0 0
					CHANNELS 3 Zrotation Yrotation Xrotation
					JOINT LeftArm
					{
						OFFSET 3.30641 1.15764 0.01104
						CHANNELS 3 Zrotation Yrotation Xrotation
						JOINT LeftForeArm
						{
							OFFSET 4.63208 -0.00000 0.00000
							CHANNELS 3 Zrotation Yrotation Xrotation
							JOINT LeftHand
							{
								OFFSET 3.41924 -0.00000 -0.00000
								CHANNELS 3 Zrotation Yrotation Xrotation
								JOINT LeftFingerBase
								{
									OFFSET 0 0 0
									CHANNELS 3 Zrotation Yrotation Xrotation
									JOINT LeftHandIndex1
									{
										OFFSET 0.62537 -0.00000 -0.00000
										CHANNELS 3 Zrotation Yrotation Xrotation
										End Site
										{
											OFFSET 0.50419 -0.00000 -0.00000
										}
									}
								}
								JOINT LThumb
								{
									OFFSET 0 0 0
									CHANNELS 3 Zrotation Yrotation Xrotation
									End Site
									{
										OFFSET 0.51189 -0.00000 0.51189
									}
								}
							}
						}
					}
				}
				JOINT RightShoulder
				{
					OFFSET 0 0 0
					CHANNELS 3 Zrotation Yrotation Xrotation
					JOINT RightArm
					{
						OFFSET -3.78081 1.02180 -0.16609
						CHANNELS 3 Zrotation Yrotation Xrotation
						JOINT RightForeArm
						{
							OFFSET -4.40640 -0.00000 -0.00000
							CHANNELS 3 Zrotation Yrotation Xrotation
							JOINT RightHand
							{
								OFFSET -3.44675 -0.00000 0.00000
								CHANNELS 3 Zrotation Yrotation Xrotation
								JOINT RightFingerBase
								{
									OFFSET 0 0 0
									CHANNELS 3 Zrotation Yrotation Xrotation
									JOINT RightHandIndex1
									{
										OFFSET -0.51367 -0.00000 -0.00000
										CHANNELS 3 Zrotation Yrotation Xrotation
										End Site
										{
											OFFSET -0.41414 -0.00000 -0.00000
										}
									}
								}
								JOINT RThumb
								{
									OFFSET 0 0 0
									CHANNELS 3 Zrotation Yrotation Xrotation
									End Site
									{
										OFFSET -0.42046 -0.00000 0.42046
									}
								}
							}
						}
					}
				}
			}
		}
	}
}
MOTION
Frames: 6
Frame Time: .0083333
9.4556 16.8661 18.1602 180.2070 2.8467 -160.1040 0.0000 0.0000 0.0000 -9.6210 -19.1758 -33.4393 3.6941 11.7418 34.8244 1.5763 5.1052 -26.0269 11.3585 -18.1061 -63.9403 0.0000 0.0000 0.0000 9.4385 15.7787 -19.5407 -5.2521 -13.6622 41.9009 -2.7032 5.6134 -29.9264 -5.5227 13.9493 -43.0349 -9.6057 4.4369 3.0442 -0.8830 5.8490 2.4268 4.2133 2.9009 -0.0242 -3.6924 -2.6698 -6.7472 4.9310 -4.1553 12.9903 1.8579 -2.0096 5.1899 -0.0000 0.0000 0.0000 -69.0147 1.2749 -13.5390 4.2088 -7.2445 -0.2666 -0.0000 -0.0000 54.8847 35.2403 -15.1072 -10.4328 -7.1250 0.0000 -0.0000 5.0767 11.7445 -3.9530 -0.0000 0.0000 0.0000 78.6786 5.9467 28.9496 -28.3229 39.4118 -10.3280 0.0000 0.0000 2.2895 -25.8795 -30.1612 13.6985 7.1250 -0.0000 -0.0000 6.5541 -62.7210 -2.8277
9.4111 16.9208 17.9691 179.8810 2.0332 -159.9550 0.0000 0.0000 0.0000 -10.4732 -19.1987 -32.2365 3.4515 11.3924 33.6149 1.5728 4.7867 -25.8281 11.4532 -18.1498 -64.2449 0.0000 0.0000 0.0000 8.3010 16.5693 -21.7891 -5.3497 -13.7671 42.3123 -2.5452 4.6688 -29.1333 -5.4456 13.8687 -42.7141 -9.4036 3.9254 3.4281 -0.7390 5.1463 2.5613 4.2726 2.5501 0.0059 -3.7611 -2.5762 -6.6984 5.1051 -4.0502 12.9695 1.9312 -1.9537 5.1750 -0.0000 -0.0000 0.0000 -68.3496 -0.1263 -14.8642 5.0627 -8.6902 -0.3849 -0.0000 -0.0000 57.0534 35.9773 -16.9195 -11.9293 -7.1250 0.0000 -0.0000 5.2756 9.4487 -4.3569 -0.0000 -0.0000 0.0000 78.0483 4.5876 27.9056 -27.3156 38.4785 -9.6948 0.0000 0.0000 3.1252 -26.1145 -31.1459 14.2273 7.1250 -0.0000 -0.0000 6.8682 -63.7958 -3.1369
9.3795 16.9622 17.7780 179.5210 1.6217 -159.8690 0.0000 0.0000 0.0000 -11.4428 -18.8749 -30.9673 3.2324 11.0621 32.4896 1.5831 4.8739 -25.9503 11.6974 -18.2598 -65.0263 0.0000 0.0000 0.0000 6.9436 17.7891 -24.0319 -5.4427 -13.8656 42.7018 -2.4161 3.5050 -28.5576 -5.4855 13.9105 -42.8803 -9.5250 3.5082 3.7274 -0.5392 4.5709 2.7047 4.5684 2.2581 0.0472 -3.9179 -2.4735 -6.8253 5.2022 -3.9235 13.1834 1.9938 -1.8942 5.2614 -0.0000 0.0000 0.0000 -67.7243 -1.5281 -2.3802 6.0932 -10.4175 -0.5560 -0.0000 -0.0000 45.3108 36.2528 -16.3751 -11.6806 -7.1250 0.0000 -0.0000 5.5401 10.0331 -4.5119 -0.0000 0.0000 0.0000 77.3847 3.0860 26.7127 -26.3446 37.5470 -9.0969 0.0000 0.0000 3.8342 -25.9780 -31.3566 14.2276 7.1250 -0.0000 -0.0000 7.1700 -63.9743 -3.3053
9.3564 16.9949 17.5890 179.2270 1.2696 -159.8500 0.0000 0.0000 0.0000 -12.3081 -18.4243 -29.7360 3.0474 10.7714 31.5128 1.6263 5.1046 -26.3871 12.1147 -18.4387 -66.3521 0.0000 0.0000 0.0000 5.5723 19.0777 -26.2250 -5.4881 -13.9133 42.8911 -2.3567 2.1644 -28.4850 -5.6237 14.0535 -43.4520 -9.6160 3.1567 4.0547 -0.3187 4.0768 2.8227 4.8642 2.0088 0.0407 -4.1457 -2.4818 -6.5970 5.4010 -3.9623 13.2272 2.0931 -1.9210 5.2456 -0.0000 0.0000 0.0000 -67.0277 -3.1856 6.5369 7.2372 -12.3089 -0.7814 -0.0000 -0.0000 36.8280 36.4055 -16.0783 -11.5426 -7.1250 0.0000 -0.0000 5.6860 10.3531 -4.5949 -0.0000 0.0000 0.0000 76.7523 1.2323 25.4582 -25.5927 36.8037 -8.6425 0.0000 0.0000 3.9424 -25.5930 -31.8503 14.1846 7.1250 -0.0000 -0.0000 7.9708 -64.3714 -3.7505
9.3406 17.0183 17.4005 178.8310 0.9245 -160.0260 0.0000 0.0000 0.0000 -13.2951 -17.9667 -28.2834 2.8680 10.4783 30.5398 1.6195 5.2197 -26.4015 12.3119 -18.5194 -66.9741 0.0000 0.0000 0.0000 4.0860 20.1566 -28.1796 -5.4527 -13.8761 42.7435 -2.3282 0.8100 -28.6679 -5.6434 14.0736 -43.5331 -9.8051 2.8148 4.5609 -0.1270 3.5801 2.9621 5.1796 1.7627 -0.0393 -3.9798 -2.3296 -6.8823 5.3513 -3.7898 13.5576 2.0583 -1.8310 5.3840 0.0000 0.0000 0.0000 -66.3731 -5.2474 12.2264 8.2083 -13.8900 -1.0015 -0.0000 -0.0000 31.1746 36.4913 -16.1168 -11.6041 -7.1250 0.0000 -0.0000 5.7354 10.2886 -4.6427 0.0000 0.0000 0.0000 76.2881 -0.8161 24.2036 -24.9606 36.1637 -8.2667 0.0000 0.0000 4.0467 -25.6177 -32.4386 14.4239 7.1250 -0.0000 -0.0000 8.3546 -64.9747 -4.0493
9.3343 17.0288 17.2090 178.3440 0.6495 -160.2800 0.0000 0.0000 0.0000 -14.3662 -17.4591 -26.7736 2.7122 10.2139 29.6724 1.6469 5.1384 -26.5528 12.4288 -18.5661 -67.3418 0.0000 0.0000 0.0000 2.4887 20.9754 -30.0910 -5.3668 -13.7853 42.3843 -2.2172 -0.7080 -28.4474 -5.5051 13.9310 -42.9615 -10.1523 2.4656 5.0395 0.0428 3.0699 3.0869 5.5683 1.5091 -0.1149 -4.6393 -2.2952 -5.6652 6.1633 -3.8135 12.9269 2.4326 -1.8570 5.0079 -0.0000 0.0000 0.0000 -65.8615 -7.5587 15.8902 9.0397 -15.2237 -1.2105 -0.0000 -0.0000 27.3413 36.5591 -16.1966 -11.6866 -7.1250 0.0000 -0.0000 5.7662 10.1787 -4.6808 -0.0000 0.0000 0.0000 76.0023 -2.9611 22.8370 -24.4129 35.5978 -7.9456 0.0000 0.0000 4.4763 -25.2789 -32.8269 14.3597 7.1250 -0.0000 -0.0000 9.0623 -65.2707 -4.4570
